<svg width="21" height="21" viewBox="0 0 21 21" fill="none" xmlns="http://www.w3.org/2000/svg">
<path d="M10.5 0C7.71523 0 5.04448 1.10624 3.07535 3.07537C1.10622 5.0445 0 7.71523 0 10.5C0 13.2848 1.10622 15.9555 3.07535 17.9246C5.04448 19.8938 7.71523 21 10.5 21C13.2848 21 15.9555 19.8938 17.9247 17.9246C19.8938 15.9555 21 13.2848 21 10.5C21 7.71523 19.8938 5.0445 17.9247 3.07537C15.9555 1.10624 13.2848 0 10.5 0ZM15.72 5.67451C17.088 5.63551 17.7915 7.296 16.8105 8.25L9 16.0605L4.63953 11.7C3.16653 10.287 5.34753 8.106 6.76053 9.579L9 11.8185L14.6895 6.129C14.9613 5.84904 15.3315 5.68602 15.7215 5.67451H15.72Z" fill="#4E9A06"/>
</svg>
