<svg width="24" height="23" viewBox="0 0 24 23" fill="none" xmlns="http://www.w3.org/2000/svg">
<path d="M23.8714 10.4638C23.7828 10.1343 23.6703 9.80295 23.4628 9.53235C23.2571 9.26451 22.9702 9.07215 22.6871 8.88899C22.0119 8.4518 21.3229 8.0367 20.6219 7.64184C20.6763 7.351 20.7178 7.07304 20.7381 6.83097C21.1679 0.155291 10.6576 -1.03847 6.3345 2.29799C4.91867 3.39051 4.3754 5.26353 4.08393 6.94694C3.38201 7.12366 2.68563 7.31878 1.99478 7.53416C1.67196 7.63448 1.3436 7.74217 1.07335 7.94466C0.799404 8.14899 0.602018 8.43799 0.427692 8.7316C0.116856 9.25531 -0.141406 9.89407 0.0873399 10.4583C0.182343 10.6921 0.352056 10.8872 0.535607 11.0611C1.27995 11.768 2.2927 12.1721 3.31745 12.2126C2.98355 14.8403 2.70777 17.6273 2.81845 18.8533C2.8987 19.735 3.06011 20.6867 3.70669 21.2942C4.31821 21.8676 5.21844 21.9946 6.05687 22.0277C6.75971 22.0553 7.48561 22.0333 8.12849 21.7498C9.41611 21.1819 10.0203 19.7728 10.4399 18.3986C10.4492 18.3682 10.4943 18.3783 10.4888 18.4106C10.3966 18.9499 10.3459 19.4957 10.4169 20.0369C10.511 20.7548 10.8448 21.47 11.4435 21.8777C11.9249 22.2063 12.5226 22.3066 13.0991 22.3913C13.9966 22.5238 14.9807 22.6223 15.7481 22.1409C16.4279 21.7148 16.8909 20.3784 17.2802 19.435C17.3309 19.3116 19.0041 13.2066 19.0529 13.0989L19.1784 12.6792C20.3922 13.3152 21.9224 13.3216 23.1353 12.6792C23.3585 12.5614 23.5753 12.4197 23.7302 12.2199C24.1029 11.7386 24.0282 11.0538 23.8704 10.4656L23.8714 10.4638Z" fill="#F3574A"/>
</svg>
