<svg width="24" height="25" viewBox="0 0 24 25" fill="none" xmlns="http://www.w3.org/2000/svg">
<mask id="mask0_1026_3032" style="mask-type:alpha" maskUnits="userSpaceOnUse" x="0" y="0" width="24" height="25">
<rect y="0.5" width="24" height="24" fill="#D9D9D9"/>
</mask>
<g mask="url(#mask0_1026_3032)">
<path d="M12 21.5L10.55 20.2C8.86667 18.6834 7.475 17.375 6.375 16.275C5.275 15.175 4.4 14.1875 3.75 13.3125C3.1 12.4375 2.64583 11.6334 2.3875 10.9C2.12917 10.1667 2 9.41669 2 8.65002C2 7.08336 2.525 5.77502 3.575 4.72502C4.625 3.67502 5.93333 3.15002 7.5 3.15002C8.36667 3.15002 9.19167 3.33336 9.975 3.70002C10.7583 4.06669 11.4333 4.58336 12 5.25002C12.5667 4.58336 13.2417 4.06669 14.025 3.70002C14.8083 3.33336 15.6333 3.15002 16.5 3.15002C18.0667 3.15002 19.375 3.67502 20.425 4.72502C21.475 5.77502 22 7.08336 22 8.65002C22 9.41669 21.8708 10.1667 21.6125 10.9C21.3542 11.6334 20.9 12.4375 20.25 13.3125C19.6 14.1875 18.725 15.175 17.625 16.275C16.525 17.375 15.1333 18.6834 13.45 20.2L12 21.5Z" fill="#F3574A"/>
</g>
</svg>
