<svg width="21" height="25" viewBox="0 0 21 25" fill="none" xmlns="http://www.w3.org/2000/svg">
<path fill-rule="evenodd" clip-rule="evenodd" d="M13.9892 2.93663C14.1526 1.54717 15.3302 0.5 16.7293 0.5C18.1892 0.5 19.3964 1.63728 19.4834 3.09457L20.1131 13.6424C21.8462 18.9205 17.9235 24.5 12.2232 24.5H10.0125C4.05783 24.5 0.0430569 18.4115 2.3887 12.9382C2.54704 12.5688 2.7447 12.2242 2.97555 11.9086L4.01787 9.30282C4.1127 9.06576 4.07707 8.7964 3.92388 8.59214C3.70362 8.29847 3.29985 8.21348 2.9799 8.39345L2.33991 8.75345C1.33389 9.31933 0.0803049 8.61967 0.0035253 7.46798C-0.0240963 7.05366 0.111405 6.63922 0.381641 6.32394L1.56153 4.94741C2.16476 4.24364 2.96152 3.73268 3.85277 3.47803L4.22215 3.3725C5.8461 2.90851 7.58936 3.4732 8.63282 4.80124C9.02134 5.29573 9.29261 5.87192 9.4262 6.48643L10.1385 9.76319H13.1861L13.9892 2.93663ZM8.05115 14.0599C6.01061 14.2574 4.35721 15.801 4.02019 17.8231C3.63019 20.1631 5.11196 22.4075 7.41699 22.9682L9.50173 23.4753C10.5637 23.7336 11.6721 23.7336 12.7341 23.4753L14.8188 22.9682C17.1239 22.4075 18.6056 20.1631 18.2156 17.8231C17.8786 15.801 16.2252 14.2574 14.1847 14.0599L11.8487 13.8339C11.3626 13.7868 10.8732 13.7868 10.3871 13.8339L8.05115 14.0599Z" fill="#FF89C2"/>
</svg>
