<svg width="31" height="25" viewBox="0 0 31 25" fill="none" xmlns="http://www.w3.org/2000/svg">
<path d="M4.89048 15.2117C3.71871 13.1517 4.43877 10.5318 6.49877 9.36002V9.36002C8.6959 8.11026 11.4919 9.02078 12.5317 11.3247L14.8785 16.5244L16.0087 18.5112C16.2647 18.9613 16.1073 19.5336 15.6573 19.7896L9.82336 23.1081C9.3733 23.3641 8.80093 23.2068 8.54493 22.7567L7.41478 20.7699L6.27949 20.3203C5.26555 19.9187 4.34872 19.3059 3.58995 18.5226L3.52843 18.4591C2.94138 17.8531 3.01523 16.8704 3.68627 16.3589V16.3589C3.95074 16.1573 4.27015 16.0407 4.6023 16.0245L5.1628 15.9971C5.24059 15.9933 5.28703 15.9088 5.24852 15.8411L4.89048 15.2117Z" fill="#E0E0E0"/>
<path d="M25.7607 6.62061C26.4183 4.34373 25.1056 1.96484 22.8288 1.30723V1.30723C20.4003 0.605835 17.8948 2.14487 17.4224 4.62806L16.3565 10.2323L15.7222 12.4283C15.5785 12.9258 15.8653 13.4455 16.3628 13.5892L22.8109 15.4515C23.3083 15.5952 23.8281 15.3084 23.9717 14.811L24.606 12.615L25.6047 11.9124C26.4966 11.2849 27.2448 10.4747 27.7993 9.53567L27.8443 9.45955C28.2734 8.73305 27.9718 7.79488 27.1998 7.45447V7.45447C26.8955 7.32031 26.5577 7.28162 26.2309 7.34352L25.6796 7.44797C25.6031 7.46246 25.5381 7.39114 25.5597 7.31631L25.7607 6.62061Z" fill="#E0E0E0"/>
</svg>
