<svg width="32" height="29" viewBox="0 0 32 29" fill="none" xmlns="http://www.w3.org/2000/svg">
<path d="M31.8285 13.1341C31.7104 12.6998 31.5604 12.263 31.2837 11.9063C31.0094 11.5532 30.627 11.2997 30.2494 11.0582C29.3492 10.4819 28.4305 9.93474 27.4958 9.41425C27.5684 9.03086 27.6238 8.66446 27.6508 8.34537C28.2239 -0.454389 14.2101 -2.02799 8.446 2.37007C6.55823 3.81021 5.83386 6.27919 5.44524 8.49824C4.50935 8.73119 3.58084 8.9884 2.65971 9.2723C2.22928 9.40454 1.79146 9.5465 1.43113 9.81341C1.06587 10.0828 0.802691 10.4637 0.570256 10.8507C0.155808 11.5411 -0.188541 12.3831 0.116453 13.1268C0.243124 13.435 0.469409 13.6922 0.714142 13.9215C1.7066 14.8533 3.05694 15.3859 4.42326 15.4393C3.97807 18.9031 3.61036 22.5769 3.75794 24.1929C3.86493 25.3552 4.08015 26.6098 4.94225 27.4105C5.75762 28.1664 6.95792 28.3338 8.07582 28.3775C9.01294 28.4139 9.98081 28.3848 10.838 28.0111C12.5548 27.2625 13.3603 25.405 13.9199 23.5936C13.9322 23.5536 13.9925 23.5669 13.9851 23.6094C13.8621 24.3203 13.7945 25.0398 13.8892 25.7532C14.0146 26.6995 14.4598 27.6422 15.2579 28.1797C15.8999 28.6128 16.6968 28.7451 17.4655 28.8567C18.6621 29.0314 19.9743 29.1612 20.9975 28.5267C21.9039 27.965 22.5212 26.2033 23.0402 24.9597C23.1079 24.7971 25.3388 16.7496 25.4039 16.6077L25.5712 16.0544C27.1896 16.8928 29.2299 16.9013 30.8471 16.0544C31.1447 15.8991 31.4337 15.7123 31.6403 15.449C32.1372 14.8145 32.0376 13.9118 31.8273 13.1365L31.8285 13.1341Z" fill="#F3574A" fill-opacity="0.35"/>
</svg>
