<svg width="430" height="482" viewBox="0 0 430 482" fill="none" xmlns="http://www.w3.org/2000/svg">
<rect y="389.389" width="430" height="29.8611" fill="#F3574A" fill-opacity="0.4"/>
<rect y="329.667" width="430" height="29.8611" fill="#F3574A" fill-opacity="0.4"/>
<rect y="269.944" width="430" height="29.8611" fill="#F3574A" fill-opacity="0.4"/>
<rect y="210.222" width="430" height="29.8611" fill="#F3574A" fill-opacity="0.4"/>
<rect y="150.5" width="430" height="29.8611" fill="#F3574A" fill-opacity="0.4"/>
<rect y="90.7778" width="430" height="29.8611" fill="#F3574A" fill-opacity="0.4"/>
<rect y="31.0557" width="430" height="29.8611" fill="#F3574A" fill-opacity="0.4"/>
<rect x="378.639" y="481.361" width="481.361" height="29.8611" transform="rotate(-90 378.639 481.361)" fill="#F3574A" fill-opacity="0.4"/>
<rect x="318.917" y="481.361" width="481.361" height="29.8611" transform="rotate(-90 318.917 481.361)" fill="#F3574A" fill-opacity="0.4"/>
<rect x="259.194" y="481.361" width="481.361" height="29.8611" transform="rotate(-90 259.194 481.361)" fill="#F3574A" fill-opacity="0.4"/>
<rect x="199.472" y="481.361" width="481.361" height="29.8611" transform="rotate(-90 199.472 481.361)" fill="#F3574A" fill-opacity="0.4"/>
<rect x="139.75" y="481.361" width="481.361" height="29.8611" transform="rotate(-90 139.75 481.361)" fill="#F3574A" fill-opacity="0.4"/>
<rect x="80.0278" y="481.361" width="481.361" height="29.8611" transform="rotate(-90 80.0278 481.361)" fill="#F3574A" fill-opacity="0.4"/>
<rect x="20.3057" y="481.361" width="481.361" height="29.8611" transform="rotate(-90 20.3057 481.361)" fill="#F3574A" fill-opacity="0.4"/>
</svg>
