<svg width="360" height="403" viewBox="0 0 360 403" fill="none" xmlns="http://www.w3.org/2000/svg">
<rect y="326" width="360" height="25" fill="#F3574A" fill-opacity="0.4"/>
<rect y="276" width="360" height="25" fill="#F3574A" fill-opacity="0.4"/>
<rect y="226" width="360" height="25" fill="#F3574A" fill-opacity="0.4"/>
<rect y="176" width="360" height="25" fill="#F3574A" fill-opacity="0.4"/>
<rect y="126" width="360" height="25" fill="#F3574A" fill-opacity="0.4"/>
<rect y="76" width="360" height="25" fill="#F3574A" fill-opacity="0.4"/>
<rect y="26" width="360" height="25" fill="#F3574A" fill-opacity="0.4"/>
<rect x="317" y="403" width="403" height="25" transform="rotate(-90 317 403)" fill="#F3574A" fill-opacity="0.4"/>
<rect x="267" y="403" width="403" height="25" transform="rotate(-90 267 403)" fill="#F3574A" fill-opacity="0.4"/>
<rect x="217" y="403" width="403" height="25" transform="rotate(-90 217 403)" fill="#F3574A" fill-opacity="0.4"/>
<rect x="167" y="403" width="403" height="25" transform="rotate(-90 167 403)" fill="#F3574A" fill-opacity="0.4"/>
<rect x="117" y="403" width="403" height="25" transform="rotate(-90 117 403)" fill="#F3574A" fill-opacity="0.4"/>
<rect x="67" y="403" width="403" height="25" transform="rotate(-90 67 403)" fill="#F3574A" fill-opacity="0.4"/>
<rect x="17" y="403" width="403" height="25" transform="rotate(-90 17 403)" fill="#F3574A" fill-opacity="0.4"/>
</svg>
