<svg width="23" height="23" viewBox="0 0 23 23" fill="none" xmlns="http://www.w3.org/2000/svg">
<circle cx="11.5" cy="11.5" r="10.5" stroke="#011126" stroke-width="1.4"/>
<circle cx="11.4998" cy="11.4998" r="7.7" stroke="#011126" stroke-width="1.4"/>
<path d="M14.7648 15.375C14.6379 15.5019 14.4736 15.5617 14.272 15.5542C14.0704 15.5542 13.8875 15.4907 13.7232 15.3638C13.6635 15.3115 13.5776 15.2257 13.4656 15.1062C13.3536 14.9867 13.2229 14.8449 13.0736 14.6806C12.6181 14.9195 12.1067 15.039 11.5392 15.039C11.136 15.039 10.7216 14.9569 10.296 14.7926C9.87787 14.6209 9.49707 14.3745 9.1536 14.0534C8.8176 13.7249 8.54133 13.3254 8.3248 12.855C8.10827 12.3846 8 11.847 8 11.2422C8 10.7867 8.06347 10.3275 8.1904 9.86461C8.3248 9.39421 8.53387 8.9686 8.8176 8.5878C9.1088 8.207 9.48213 7.89714 9.9376 7.6582C10.4005 7.41927 10.9605 7.2998 11.6176 7.2998C12.0731 7.2998 12.5024 7.3782 12.9056 7.535C13.3088 7.68434 13.6597 7.92327 13.9584 8.25181C14.2645 8.57287 14.5072 8.98354 14.6864 9.4838C14.8656 9.9766 14.9552 10.5627 14.9552 11.2422C14.9552 11.7126 14.888 12.1606 14.7536 12.5862C14.6267 13.0043 14.44 13.3814 14.1936 13.7174C14.4624 14.0011 14.6752 14.2363 14.832 14.423C14.9365 14.5499 14.9888 14.703 14.9888 14.8822C14.9888 15.0689 14.9141 15.2331 14.7648 15.375ZM9.6912 11.231C9.6912 11.6118 9.7472 11.9441 9.8592 12.2278C9.9712 12.5041 10.1168 12.7355 10.296 12.9222C10.4752 13.1014 10.6768 13.2358 10.9008 13.3254C11.1248 13.4075 11.3488 13.4486 11.5728 13.4486C11.64 13.4486 11.7072 13.4449 11.7744 13.4374C11.8416 13.4299 11.9051 13.4187 11.9648 13.4038C11.8976 13.3142 11.8341 13.2321 11.7744 13.1574C11.7147 13.0753 11.6624 13.0006 11.6176 12.9334C11.4608 12.7019 11.3861 12.4929 11.3936 12.3062C11.4085 12.1195 11.4907 11.9777 11.64 11.8806C11.8192 11.7537 11.9909 11.7238 12.1552 11.791C12.3269 11.8507 12.5061 11.9777 12.6928 12.1718C12.7301 12.2091 12.7787 12.2577 12.8384 12.3174C12.8981 12.3771 12.9616 12.4443 13.0288 12.519C13.2453 12.1307 13.3536 11.6678 13.3536 11.1302C13.3536 10.7942 13.3125 10.4806 13.2304 10.1894C13.1557 9.89821 13.04 9.64434 12.8832 9.4278C12.7339 9.21127 12.5435 9.03954 12.312 8.91261C12.088 8.78567 11.8229 8.72221 11.5168 8.72221C11.2107 8.72221 10.9419 8.7894 10.7104 8.9238C10.4864 9.0582 10.2997 9.24114 10.1504 9.47261C10.0011 9.69661 9.88533 9.96167 9.8032 10.2678C9.72853 10.5739 9.6912 10.895 9.6912 11.231Z" fill="#011126"/>
</svg>
