<svg width="23" height="23" viewBox="0 0 23 23" fill="none" xmlns="http://www.w3.org/2000/svg">
<g id="Group 12285">
<g id="Group 12283">
<path id="Union" d="M16.813 1.52978C16.3118 1.0286 15.4541 1.29317 15.3224 1.98959L14.541 6.11965L14.0731 6.5875C11.4764 4.96454 8.04385 6.09314 6.91689 8.94041L3.26348 18.1707C3.19876 18.3343 3.23736 18.5206 3.36172 18.645L4.35525 19.6385C4.47962 19.7629 4.66597 19.8015 4.8295 19.7367L14.0596 16.0832C16.9068 14.9561 18.0354 11.5235 16.4124 8.92677L16.8803 8.45892L21.0103 7.67755C21.7067 7.5458 21.9713 6.68811 21.4701 6.18693L16.813 1.52978Z" fill="#FF776C"/>
<path id="Intersect" fill-rule="evenodd" clip-rule="evenodd" d="M20.9425 5.65918L15.6594 7.05765C15.1059 11.0702 12.6441 14.5665 9.0529 16.4401L4.63184 18.7467L5.79627 19.3542L14.0598 16.0833C16.9071 14.9562 18.0356 11.5237 16.4127 8.92691L16.8805 8.45905L21.0106 7.67769C21.707 7.54594 21.9716 6.68825 21.4704 6.18707L20.9425 5.65918Z" fill="#F3574A"/>
<path id="Rectangle 58439" d="M14.0761 6.0487C14.4812 5.84614 14.9705 5.92554 15.2907 6.24582L16.7134 7.66844C17.0336 7.98871 17.113 8.47799 16.9105 8.88311L16.887 8.93001C16.7585 9.18698 16.4161 9.24256 16.2129 9.03941L13.9198 6.74626C13.7166 6.54311 13.7722 6.20064 14.0292 6.07215L14.0761 6.0487Z" fill="#C3C3C3"/>
<path id="Intersect_2" fill-rule="evenodd" clip-rule="evenodd" d="M5.90063 19.3127L3.6875 17.0996L3.26355 18.1707C3.19883 18.3342 3.23743 18.5206 3.36179 18.6449L4.35533 19.6385C4.4797 19.7628 4.66606 19.8014 4.82959 19.7367L5.90063 19.3127Z" fill="#C3C3C3"/>
</g>
</g>
</svg>
