<svg width="233" height="262" viewBox="0 0 233 262" fill="none" xmlns="http://www.w3.org/2000/svg">
<g clip-path="url(#clip0_371_7468)">
<path opacity="0.5" d="M163.161 59.0083C235.217 93.72 271.241 217.788 172.593 254.027C134.26 268.11 91.8611 260.951 60.65 252.29C16.3446 239.986 -1.75548 203.084 0.134321 165.082C1.89814 129.716 16.0003 104.11 45.0696 85.2771C89.6605 56.3898 126.843 54.1322 126.843 54.1322L118.134 10.9187L141.609 7.5281L141.92 -0.0168457L169.385 3.19752L187.132 18.3881L193.633 15.8871L202.192 42.8441L163.161 58.9999V59.0083Z" fill="white"/>
<path d="M36.0906 111.84C1.5114 139.821 -0.26922 199.383 39.257 232.517C67.7217 256.377 147.497 260.54 180.833 244.25C206.223 228.673 227.137 198.032 226.221 171.754C231.899 83.5231 93.1626 67.745 36.0906 111.84Z" fill="#FCEAD2"/>
<path opacity="0.25" d="M163.161 59.0083C235.217 93.72 271.241 217.788 172.593 254.027C134.26 268.11 91.8611 260.951 60.65 252.29C16.3446 239.986 -1.75548 203.084 0.134321 165.082C1.89814 129.716 16.0003 104.11 45.0696 85.2771C89.6605 56.3898 126.843 54.1322 126.843 54.1322L118.134 10.9187L141.609 7.5281L141.92 -0.0168457L169.385 3.19752L187.132 18.3881L193.633 15.8871L202.192 42.8441L163.161 58.9999V59.0083Z" fill="white"/>
<path d="M125.416 47.0488C125.416 47.0488 145.784 48.4504 163.162 59.0083C163.162 59.0083 152.864 56.7087 126.852 54.1406" stroke="#FFC222" stroke-width="4" stroke-linecap="round" stroke-linejoin="round"/>
</g>
<defs>
<clipPath id="clip0_371_7468">
<rect width="233" height="262" fill="white"/>
</clipPath>
</defs>
</svg>
