<svg width="100" height="100" viewBox="0 0 100 100" fill="none" xmlns="http://www.w3.org/2000/svg">
<path d="M11.5002 20.2781C10.5699 15.8203 24.6017 12.6936 31.7339 11.6875C30.6873 9.9459 54.526 5.4187 66.736 5.4187C74.127 5.4189 83.1323 19.9641 83.1323 24.4914C83.2486 26.5812 80.1864 38.0739 80.2252 38.19C80.4577 38.8866 84.2952 42.1363 84.2952 45.0386C84.4114 46.4316 82.9172 62.4228 83.1323 63.4967C83.4812 65.238 83.5975 66.7136 87.2023 72.1698C88.3652 73.1321 92.5515 86.5648 92.9003 86.913C93.2492 87.2613 93.4819 93.2161 92.5515 94.1105C91.3609 95.255 80.6903 91.5566 79.0623 91.5566C77.1374 91.5566 68.8291 92.6357 67.4337 93.2979C66.2455 93.8618 55.5726 95.1896 52.084 94.8071C49.5257 95.0735 30.4548 87.9578 28.5942 87.9578H18.1285C16.8761 87.9578 12.0816 88.0739 8.4767 85.4039C4.87184 82.7338 8.94209 78.2407 9.4071 77.5098C9.63191 77.1565 14.4075 69.8823 14.64 68.6871C14.8013 67.8574 15.8028 60.793 15.8028 55.9173C15.3377 46.7463 22.6637 47.7911 19.2914 45.9337C15.9191 44.0763 14.6399 39.5488 13.0119 35.834C11.3839 32.1191 10.5699 31.1904 11.5002 20.2781Z" fill="#E7BF57"/>
<path d="M32.4407 10.97C39.5954 1.20253 51.6612 5.58239 56.7997 8.99326C62.919 13.877 72.3329 5.73742 74.5688 18.2956C76.8046 30.8538 65.743 31.4352 62.8011 31.4352C59.8592 31.4352 54.2108 32.4817 50.6805 34.9236C47.1502 37.3655 36.5594 35.6213 26.5569 34.9236C16.5544 34.2259 18.908 25.1561 21.3792 23.1793C23.8504 21.2026 23.4973 23.1794 32.4407 10.97Z" fill="#FFFAEF"/>
<path d="M60.3706 50.1639C54.8009 51.8284 45.2497 58.4856 51.6024 71.7976C57.5059 70.392 67.5243 64.0974 60.3706 50.1639Z" fill="#FFFAEF" stroke="#E7BF57" stroke-linejoin="round"/>
<path d="M35.4783 58.8565C35.5352 64.0712 38.9117 73.9548 51.9628 71.7717C52.2119 66.3333 49.2638 56.1365 35.4783 58.8565Z" fill="#FFFAEF" stroke="#E7BF57" stroke-width="2" stroke-linejoin="round"/>
</svg>
