<svg width="37" height="22" viewBox="0 0 37 22" fill="none" xmlns="http://www.w3.org/2000/svg">
<path d="M36.2597 4.65C36.2597 2.63416 34.6278 1 32.6147 1C30.6016 1 28.9697 2.63416 28.9697 4.65V17.04C28.9697 19.0558 30.6016 20.69 32.6147 20.69C34.6278 20.69 36.2597 19.0558 36.2597 17.04V4.65Z" fill="#917E67" stroke="black" stroke-width="1.4" stroke-miterlimit="10"/>
<path d="M36.2597 4.65C36.2597 2.63416 34.6278 1 32.6147 1C30.6016 1 28.9697 2.63416 28.9697 4.65V10.98C28.9697 12.9958 30.6016 14.63 32.6147 14.63C34.6278 14.63 36.2597 12.9958 36.2597 10.98V4.65Z" fill="black" stroke="black" stroke-width="1.4" stroke-miterlimit="10"/>
<path d="M36.2597 4.65C36.2597 2.63416 34.6278 1 32.6147 1C30.6016 1 28.9697 2.63416 28.9697 4.65V7.19C28.9697 9.20584 30.6016 10.84 32.6147 10.84C34.6278 10.84 36.2597 9.20584 36.2597 7.19V4.65Z" fill="white" stroke="black" stroke-width="1.4" stroke-miterlimit="10"/>
<path d="M8.29001 4.65C8.29001 2.63416 6.6581 1 4.64502 1C2.63194 1 1 2.63416 1 4.65V17.04C1 19.0558 2.63194 20.69 4.64502 20.69C6.6581 20.69 8.29001 19.0558 8.29001 17.04V4.65Z" fill="#917E67" stroke="black" stroke-width="1.4" stroke-miterlimit="10"/>
<path d="M8.29001 4.65C8.29001 2.63416 6.6581 1 4.64502 1C2.63194 1 1 2.63416 1 4.65V10.98C1 12.9958 2.63194 14.63 4.64502 14.63C6.6581 14.63 8.29001 12.9958 8.29001 10.98V4.65Z" fill="black" stroke="black" stroke-width="1.4" stroke-miterlimit="10"/>
<path d="M8.29001 4.65C8.29001 2.63416 6.6581 1 4.64502 1C2.63194 1 1 2.63416 1 4.65V7.19C1 9.20584 2.63194 10.84 4.64502 10.84C6.6581 10.84 8.29001 9.20584 8.29001 7.19V4.65Z" fill="white" stroke="black" stroke-width="1.4" stroke-miterlimit="10"/>
</svg>
