<svg width="16" height="16" viewBox="0 0 16 16" fill="none" xmlns="http://www.w3.org/2000/svg">
<path d="M0.801147 2.72005C0.635533 1.92644 3.13355 1.36982 4.40326 1.19071C4.21694 0.880662 8.46081 0.074707 10.6345 0.074707C11.9503 0.0747431 13.5535 2.66415 13.5535 3.47012C13.5742 3.84215 13.029 5.88816 13.0359 5.90882C13.0773 6.03282 13.7605 6.61137 13.7605 7.12803C13.7812 7.37603 13.5152 10.2229 13.5535 10.414C13.6156 10.724 13.6363 10.9867 14.278 11.9581C14.485 12.1294 15.2303 14.5207 15.2924 14.5827C15.3545 14.6447 15.3959 15.7048 15.2303 15.8641C15.0184 16.0678 13.1187 15.4094 12.8289 15.4094C12.4862 15.4094 11.0071 15.6015 10.7587 15.7194C10.5472 15.8198 8.64713 16.0562 8.02608 15.9881C7.57064 16.0355 4.17555 14.7687 3.84432 14.7687H1.98116C1.75819 14.7687 0.904646 14.7894 0.26289 14.3141C-0.378865 13.8387 0.345741 13.0388 0.428524 12.9087C0.468545 12.8458 1.31872 11.5508 1.3601 11.3381C1.38883 11.1904 1.56712 9.93273 1.56712 9.06472C1.48431 7.43205 2.78853 7.61806 2.18818 7.28739C1.58782 6.95672 1.3601 6.15072 1.07027 5.48938C0.780445 4.82805 0.635533 4.66272 0.801147 2.72005Z" fill="#E7BF57"/>
<path d="M4.52895 1.06281C5.80267 -0.676045 7.95067 0.10368 8.86546 0.7109C9.95484 1.58033 11.6308 0.131279 12.0288 2.36695C12.4268 4.60262 10.4576 4.70613 9.93386 4.70613C9.41013 4.70613 8.40456 4.89243 7.77608 5.32715C7.1476 5.76186 5.26218 5.45135 3.48148 5.32715C1.70079 5.20294 2.11978 3.58829 2.55971 3.23638C2.99965 2.88447 2.9368 3.23638 4.52895 1.06281Z" fill="#FFFAEF"/>
<path d="M9.50096 8.04036C8.50941 8.3367 6.80905 9.52184 7.94 11.8917C8.99095 11.6415 10.7745 10.5209 9.50096 8.04036Z" fill="#FFFAEF" stroke="#E7BF57" stroke-width="0.178025" stroke-linejoin="round"/>
<path d="M5.07023 9.58766C5.08035 10.516 5.68144 12.2756 8.00488 11.8869C8.04923 10.9187 7.52438 9.10344 5.07023 9.58766Z" fill="#FFFAEF" stroke="#E7BF57" stroke-width="0.35605" stroke-linejoin="round"/>
</svg>
