<svg width="24" height="27" viewBox="0 0 24 27" fill="none" xmlns="http://www.w3.org/2000/svg">
<path fill-rule="evenodd" clip-rule="evenodd" d="M15.5739 2.71265C15.7559 1.16579 17.0668 0 18.6244 0C20.2496 0 21.5936 1.2661 21.6904 2.88848L22.3856 14.5334C24.6974 20.3498 20.4158 26.7188 14.1049 26.7188H10.6495C4.25565 26.7188 -0.055221 20.1812 2.46341 14.3042L2.71305 13.7217C2.88476 13.3211 3.09952 12.9477 3.35056 12.6061L4.473 9.8C4.57857 9.53608 4.53891 9.23621 4.36836 9.00881C4.12316 8.68187 3.67364 8.58726 3.31745 8.78762L2.60496 9.18839C1.48499 9.81838 0.089401 9.03946 0.00392461 7.7573C-0.0268257 7.29605 0.124024 6.83466 0.424871 6.48367L1.73842 4.95119C2.40998 4.1677 3.29699 3.59886 4.2892 3.31537L4.7004 3.19788C6.50832 2.68134 8.44905 3.31 9.61071 4.78848C10.0432 5.33898 10.3452 5.98044 10.494 6.66456L11.287 10.3125H14.6798L15.5739 2.71265ZM8.96323 15.096C6.69154 15.3159 4.85084 17.0343 4.47563 19.2856C4.04146 21.8906 5.69108 24.3892 8.25723 25.0134L10.6047 25.5844C11.7695 25.8678 12.9852 25.8678 14.15 25.5844L16.4975 25.0134C19.0636 24.3892 20.7132 21.8906 20.2791 19.2856C19.9039 17.0343 18.0632 15.3159 15.7915 15.096L13.0998 14.8355C12.6193 14.789 12.1354 14.789 11.6549 14.8355L8.96323 15.096Z" fill="#E0E0E0"/>
</svg>
