<svg width="29" height="28" viewBox="0 0 29 28" fill="none" xmlns="http://www.w3.org/2000/svg">
<path d="M14.5 3.49398C8.21772 3.49398 3.125 7.50947 3.125 12.4627C3.125 15.6651 5.25409 18.4751 8.45681 20.0618C8.28258 20.6627 7.33714 23.9275 7.29952 24.184C7.29952 24.184 7.27688 24.3767 7.40167 24.4502C7.52647 24.5237 7.67325 24.4666 7.67325 24.4666C8.03113 24.4167 11.8233 21.7529 12.4796 21.2904C13.1353 21.3832 13.8105 21.4315 14.5 21.4315C20.7823 21.4315 25.875 17.4161 25.875 12.4627C25.875 7.50947 20.7823 3.49398 14.5 3.49398Z" fill="#371D1E"/>
<path d="M8.21094 15.5936C7.84902 15.5936 7.55469 15.3125 7.55469 14.9669V11.0682H6.53072C6.17558 11.0682 5.88672 10.7799 5.88672 10.4256C5.88672 10.0714 6.17569 9.78304 6.53072 9.78304H9.89116C10.2463 9.78304 10.5352 10.0714 10.5352 10.4256C10.5352 10.7799 10.2462 11.0682 9.89116 11.0682H8.86719V14.9669C8.86719 15.3125 8.57286 15.5936 8.21094 15.5936ZM13.9654 15.5851C13.6917 15.5851 13.4824 15.4739 13.4193 15.2952L13.0943 14.4445L11.0932 14.4444L10.768 15.2957C10.7051 15.474 10.4959 15.5851 10.2222 15.5851C10.0783 15.5852 9.936 15.5543 9.80508 15.4945C9.62417 15.411 9.45027 15.1816 9.64955 14.5626L11.2193 10.4309C11.3299 10.1166 11.6658 9.79289 12.0932 9.78315C12.5218 9.79278 12.8577 10.1166 12.9685 10.4315L14.5376 14.5614C14.7373 15.1818 14.5634 15.4114 14.3825 15.4946C14.2516 15.5543 14.1093 15.5852 13.9654 15.5851C13.9654 15.5851 13.9653 15.5851 13.9654 15.5851ZM12.7492 13.2821L12.0938 11.4199L11.4383 13.2821H12.7492ZM15.5938 15.4979C15.2469 15.4979 14.9648 15.2279 14.9648 14.8963V10.4393C14.9648 10.0774 15.2654 9.78304 15.6348 9.78304C16.0041 9.78304 16.3047 10.0774 16.3047 10.4393V14.2948H17.6992C18.046 14.2948 18.3281 14.5647 18.3281 14.8963C18.3281 15.2279 18.046 15.4979 17.6992 15.4979H15.5938ZM19.2397 15.5851C18.8777 15.5851 18.5834 15.2907 18.5834 14.9288V10.4393C18.5834 10.0774 18.8777 9.78304 19.2397 9.78304C19.6016 9.78304 19.8959 10.0774 19.8959 10.4393V11.8498L21.7268 10.0189C21.821 9.92468 21.9504 9.87284 22.0908 9.87284C22.2547 9.87284 22.4192 9.9435 22.5425 10.0667C22.6574 10.1815 22.726 10.3293 22.7354 10.4827C22.7449 10.6375 22.6934 10.7793 22.5906 10.8823L21.0951 12.3775L22.7105 14.5176C22.7626 14.5862 22.8006 14.6645 22.8222 14.748C22.8439 14.8315 22.8487 14.9184 22.8365 15.0037C22.8248 15.0891 22.7962 15.1714 22.7525 15.2456C22.7088 15.3199 22.6508 15.3848 22.5818 15.4365C22.4683 15.5228 22.3296 15.5693 22.1871 15.569C22.0854 15.5695 21.985 15.5461 21.894 15.5008C21.803 15.4555 21.7238 15.3895 21.6629 15.3081L20.1238 13.2689L19.8961 13.4967V14.9285C19.8959 15.1025 19.8267 15.2694 19.7036 15.3925C19.5806 15.5156 19.4137 15.5848 19.2397 15.5851Z" fill="#FAE100"/>
</svg>
