<svg width="28" height="28" viewBox="0 0 28 28" fill="none" xmlns="http://www.w3.org/2000/svg">
<path d="M13 0.57735C13.6188 0.220085 14.3812 0.220085 15 0.57735L25.1244 6.42265C25.7432 6.77992 26.1244 7.44017 26.1244 8.1547V19.8453C26.1244 20.5598 25.7432 21.2201 25.1244 21.5774L15 27.4226C14.3812 27.7799 13.6188 27.7799 13 27.4226L2.87564 21.5774C2.25684 21.2201 1.87564 20.5598 1.87564 19.8453V8.1547C1.87564 7.44017 2.25684 6.77992 2.87564 6.42265L13 0.57735Z" fill="#C883FF"/>
<path d="M7.1788 8.97739C4.30403 11.3055 4.15625 16.2615 7.44198 19.0178C9.8086 21.0028 16.4408 21.35 19.2123 19.9946C21.3228 18.6979 23.0619 16.1491 22.986 13.9627C23.4577 6.6209 11.9232 5.30802 7.1788 8.97739Z" fill="#A32FFF"/>
</svg>
