<svg width="28" height="28" viewBox="0 0 28 28" fill="none" xmlns="http://www.w3.org/2000/svg">
<path d="M13 0.57735C13.6188 0.220085 14.3812 0.220085 15 0.57735L25.1244 6.42265C25.7432 6.77992 26.1244 7.44017 26.1244 8.1547V19.8453C26.1244 20.5598 25.7432 21.2201 25.1244 21.5774L15 27.4226C14.3812 27.7799 13.6188 27.7799 13 27.4226L2.87564 21.5774C2.25684 21.2201 1.87564 20.5598 1.87564 19.8453V8.1547C1.87564 7.44017 2.25684 6.77992 2.87564 6.42265L13 0.57735Z" fill="#FF8ED8"/>
<path d="M21.4993 14.7322C21.7613 14.0237 22.0636 12.8078 22.1317 12.0085C22.5388 5.67285 12.5849 4.53988 8.49074 7.70641C7.1324 8.75639 6.62139 10.5681 6.34798 12.1806C5.99245 14.2779 5.9086 16.4207 6.0999 18.539C6.17589 19.3758 6.32876 20.2791 6.9411 20.8556C7.52025 21.3998 8.37281 21.5203 9.16685 21.5518C9.83247 21.578 10.5199 21.557 11.1288 21.288C12.3482 20.749 12.9204 19.4117 13.3178 18.1075C13.3266 18.0787 13.3694 18.0883 13.3641 18.1188C13.2768 18.6307 13.2287 19.1487 13.296 19.6624C13.3851 20.3437 13.7013 21.0224 14.2682 21.4094C14.7242 21.7213 15.2903 21.8165 15.8362 21.8968C16.6862 22.0226 17.6182 22.1161 18.345 21.6592C19.0726 21.2015 19.5391 19.6388 19.9383 18.7609L21.4984 14.7339L21.4993 14.7322Z" fill="#FF48C1"/>
</svg>
