<svg width="28" height="28" viewBox="0 0 28 28" fill="none" xmlns="http://www.w3.org/2000/svg">
<path d="M13 0.57735C13.6188 0.220085 14.3812 0.220085 15 0.57735L25.1244 6.42265C25.7432 6.77992 26.1244 7.44017 26.1244 8.1547V19.8453C26.1244 20.5598 25.7432 21.2201 25.1244 21.5774L15 27.4226C14.3812 27.7799 13.6188 27.7799 13 27.4226L2.87564 21.5774C2.25684 21.2201 1.87564 20.5598 1.87564 19.8453V8.1547C1.87564 7.44017 2.25684 6.77992 2.87564 6.42265L13 0.57735Z" fill="#FF9797"/>
<path d="M21.1069 12.5285C21.3328 11.9178 21.5934 10.8694 21.6521 10.1803C22.0031 4.71794 13.4213 3.74115 9.89142 6.4712C8.72032 7.37645 8.27974 8.93842 8.04401 10.3287C7.73749 12.1369 6.85484 18.1897 7.02053 20.0161C7.08605 20.7375 7.21784 21.5163 7.74578 22.0133C8.2451 22.4825 8.98014 22.5865 9.66473 22.6136C10.2386 22.6362 10.8313 22.6181 11.3562 22.3861C12.4076 21.9215 12.9009 20.7684 13.2436 19.644C13.2511 19.6192 13.288 19.6275 13.2835 19.6538C13.2082 20.0951 13.1667 20.5417 13.2247 20.9846C13.3015 21.572 13.5742 22.1572 14.0629 22.4908C14.4561 22.7597 14.9441 22.8418 15.4148 22.9111C16.1476 23.0195 16.9512 23.1001 17.5778 22.7062C18.2051 22.3116 18.6073 20.9642 18.9514 20.2074L21.1061 12.5301L21.1069 12.5285Z" fill="#FF4848"/>
</svg>
