<svg width="28" height="28" viewBox="0 0 28 28" fill="none" xmlns="http://www.w3.org/2000/svg">
<path d="M13 0.57735C13.6188 0.220085 14.3812 0.220085 15 0.57735L25.1244 6.42265C25.7432 6.77992 26.1244 7.44017 26.1244 8.1547V19.8453C26.1244 20.5598 25.7432 21.2201 25.1244 21.5774L15 27.4226C14.3812 27.7799 13.6188 27.7799 13 27.4226L2.87564 21.5774C2.25684 21.2201 1.87564 20.5598 1.87564 19.8453V8.1547C1.87564 7.44017 2.25684 6.77992 2.87564 6.42265L13 0.57735Z" fill="#FFD25E"/>
<path d="M22.9035 13.2464C22.8371 13.0068 22.7527 12.7658 22.5971 12.569C22.4428 12.3742 22.2277 12.2343 22.0153 12.1011C21.5089 11.7831 20.9922 11.4812 20.4664 11.1941C20.5072 10.9825 20.5384 10.7804 20.5536 10.6043C20.8759 5.7493 12.9932 4.88111 9.75087 7.30763C8.689 8.10219 8.28155 9.46438 8.06295 10.6887C7.53651 10.8172 7.01423 10.9591 6.49609 11.1158C6.25397 11.1887 6.0077 11.267 5.80501 11.4143C5.59955 11.5629 5.45151 11.7731 5.32077 11.9866C5.08764 12.3675 4.89395 12.8321 5.0655 13.2424C5.13676 13.4124 5.26404 13.5543 5.4017 13.6808C5.95996 14.1949 6.71953 14.4888 7.48809 14.5182C7.23766 16.4293 7.03083 18.4562 7.11384 19.3478C7.17402 19.9891 7.29508 20.6812 7.78002 21.123C8.23866 21.5401 8.91383 21.6324 9.54265 21.6565C10.0698 21.6766 10.6142 21.6606 11.0964 21.4544C12.0621 21.0414 12.5152 20.0165 12.8299 19.0172C12.8369 18.9951 12.8708 19.0024 12.8666 19.0259C12.7974 19.4181 12.7594 19.8151 12.8127 20.2087C12.8832 20.7308 13.1336 21.2509 13.5826 21.5474C13.9437 21.7864 14.392 21.8594 14.8243 21.9209C15.4974 22.0173 16.2355 22.089 16.8111 21.7389C17.3209 21.4289 17.6682 20.457 17.9601 19.7709C17.9982 19.6812 19.253 15.2412 19.2897 15.1628L19.3838 14.8576C20.2942 15.3202 21.4418 15.3248 22.3515 14.8576C22.5189 14.7719 22.6815 14.6688 22.7977 14.5236C23.0772 14.1735 23.0211 13.6755 22.9028 13.2477L22.9035 13.2464Z" fill="#FFC222"/>
</svg>
