<svg width="22" height="20" viewBox="0 0 22 20" fill="none" xmlns="http://www.w3.org/2000/svg">
<g id="Group 12289">
<path id="Vector" d="M17.1163 7.63786C17.0528 7.38527 16.9721 7.13128 16.8233 6.92385C16.6758 6.71853 16.4701 6.57107 16.2671 6.43067C15.783 6.09554 15.289 5.77734 14.7863 5.47466C14.8254 5.25171 14.8551 5.03863 14.8697 4.85307C15.1779 -0.264241 7.64173 -1.17933 4.54197 1.37827C3.52679 2.21575 3.13725 3.65153 2.92826 4.94197C2.42498 5.07744 1.92566 5.22701 1.4303 5.39211C1.19883 5.46901 0.963388 5.55156 0.769611 5.70678C0.573189 5.86341 0.43166 6.08495 0.306664 6.31002C0.083788 6.71148 -0.101391 7.20112 0.0626245 7.63362C0.130744 7.81283 0.252432 7.96241 0.384041 8.09576C0.917753 8.63761 1.64392 8.94735 2.37868 8.97839C2.13927 10.9927 1.94153 13.1291 2.02089 14.0689C2.07843 14.7448 2.19417 15.4743 2.65777 15.94C3.09625 16.3796 3.74173 16.4769 4.3429 16.5023C4.84685 16.5235 5.36734 16.5065 5.8283 16.2892C6.75155 15.8539 7.18474 14.7737 7.48565 13.7204C7.49227 13.6971 7.52467 13.7048 7.5207 13.7295C7.45457 14.143 7.41819 14.5614 7.46912 14.9762C7.53658 15.5265 7.77599 16.0748 8.2052 16.3873C8.55043 16.6392 8.97899 16.7161 9.39233 16.781C10.0358 16.8826 10.7415 16.9581 11.2917 16.5891C11.7792 16.2624 12.1112 15.238 12.3902 14.5148C12.4266 14.4203 13.6263 9.74038 13.6614 9.65783L13.7513 9.3361C14.6217 9.82363 15.7188 9.82857 16.5885 9.3361C16.7486 9.24579 16.904 9.13714 17.0151 8.98404C17.2823 8.61504 17.2287 8.09011 17.1156 7.63927L17.1163 7.63786Z" fill="#E5CC9A"/>
<path id="Union" fill-rule="evenodd" clip-rule="evenodd" d="M17.3118 6.80933C15.2139 6.14912 12.978 7.31461 12.3178 9.41251L12.0813 10.1639L12.0625 10.1277C11.5615 9.16658 10.3762 8.79358 9.41513 9.29457C8.45403 9.79556 8.08103 10.9808 8.58202 11.9419L10.4151 15.4586L10.2416 16.01C9.96359 16.8934 10.4543 17.8348 11.3376 18.1128L15.736 19.4969C16.6193 19.7749 17.5608 19.2842 17.8387 18.4008L19.915 11.8033C20.5752 9.70541 19.4097 7.46953 17.3118 6.80933Z" fill="#FF776C"/>
<path id="Rectangle 58447" d="M10.3712 15.5981C10.4407 15.3773 10.6761 15.2546 10.8969 15.3241L17.6944 17.4632C17.9152 17.5327 18.0379 17.7681 17.9684 17.9889L17.5871 19.2005C17.4481 19.6422 16.9774 19.8875 16.5357 19.7486L10.538 17.8611C10.0963 17.7221 9.85096 17.2514 9.98995 16.8097L10.3712 15.5981Z" fill="#F3574A"/>
</g>
</svg>
