<svg width="32" height="10" viewBox="0 0 32 10" fill="none" xmlns="http://www.w3.org/2000/svg">
<path d="M1.272 9.336C0.877333 9.336 0.594667 9.18133 0.424 8.872C0.264 8.552 0.184 8.152 0.184 7.672C0.184 7.43733 0.178667 7.08533 0.168 6.616C0.168 6.136 0.168 5.61333 0.168 5.048C0.168 4.472 0.173333 3.896 0.184 3.32C0.194667 2.744 0.216 2.232 0.248 1.784C0.269333 1.528 0.306667 1.32 0.36 1.16C0.424 1 0.552 0.893333 0.744 0.839999C1.40533 0.648 2.04533 0.504 2.664 0.408C3.28267 0.312 3.784 0.264 4.168 0.264C4.36 0.264 4.57867 0.28 4.824 0.311999C5.06933 0.333333 5.32 0.376 5.576 0.44C5.84267 0.503999 6.104 0.589333 6.36 0.695999C6.616 0.802666 6.84533 0.936 7.048 1.096C7.35733 1.34133 7.59733 1.736 7.768 2.28C7.93867 2.824 8.024 3.576 8.024 4.536C8.024 5.016 8.024 5.432 8.024 5.784C8.03467 6.136 8.04 6.44533 8.04 6.712C8.05067 6.968 8.056 7.19733 8.056 7.4C8.056 7.60267 8.05067 7.8 8.04 7.992C8.01867 8.376 7.928 8.68 7.768 8.904C7.608 9.11733 7.35733 9.224 7.016 9.224C6.856 9.224 6.696 9.20267 6.536 9.16C6.376 9.11733 6.232 9.032 6.104 8.904C5.976 8.776 5.86933 8.59467 5.784 8.36C5.70933 8.11467 5.672 7.78933 5.672 7.384C5.672 6.56267 5.66667 5.90133 5.656 5.4C5.64533 4.89867 5.64 4.48267 5.64 4.152C5.64 3.85333 5.624 3.59733 5.592 3.384C5.56 3.17067 5.49067 2.99467 5.384 2.856C5.288 2.71733 5.13867 2.616 4.936 2.552C4.73333 2.488 4.46667 2.456 4.136 2.456C3.82667 2.456 3.57067 2.472 3.368 2.504C3.176 2.536 3.02133 2.584 2.904 2.648C2.78667 2.712 2.70133 2.78667 2.648 2.872C2.59467 2.95733 2.55733 3.05333 2.536 3.16C2.504 3.34133 2.47733 3.52267 2.456 3.704C2.44533 3.88533 2.44 4.14667 2.44 4.488C2.44 4.616 2.44533 4.85067 2.456 5.192C2.46667 5.53333 2.472 5.896 2.472 6.28C2.48267 6.65333 2.49333 7.01067 2.504 7.352C2.51467 7.68267 2.52 7.90667 2.52 8.024C2.52 8.35467 2.408 8.65867 2.184 8.936C1.97067 9.20267 1.66667 9.336 1.272 9.336ZM14.5661 9.352C14.0328 9.352 13.4835 9.304 12.9181 9.208C12.3528 9.12267 11.8301 8.93067 11.3501 8.632C10.8808 8.32267 10.4915 7.87467 10.1821 7.288C9.88346 6.70133 9.73413 5.90667 9.73413 4.904C9.73413 4.2 9.84613 3.56533 10.0701 3C10.3048 2.424 10.6141 1.93333 10.9981 1.528C11.3821 1.112 11.8301 0.791999 12.3421 0.568C12.8648 0.344 13.4141 0.231999 13.9901 0.231999C14.5661 0.231999 15.0835 0.317333 15.5421 0.488C16.0008 0.658666 16.3848 0.893333 16.6941 1.192C17.0035 1.48 17.2381 1.816 17.3981 2.2C17.5688 2.57333 17.6541 2.968 17.6541 3.384C17.6541 4.024 17.4941 4.52533 17.1741 4.888C16.8541 5.25067 16.3261 5.44267 15.5901 5.464C15.0248 5.48533 14.4595 5.496 13.8941 5.496C13.3395 5.496 12.6941 5.48533 11.9581 5.464C12.0435 6.08267 12.2728 6.54667 12.6461 6.856C13.0301 7.16533 13.5955 7.32 14.3421 7.32C14.8541 7.32 15.2595 7.24 15.5581 7.08C15.8568 6.90933 16.0861 6.74933 16.2461 6.6C16.4595 6.408 16.6781 6.32267 16.9021 6.344C17.1261 6.35467 17.3448 6.49867 17.5581 6.776C17.7075 6.95733 17.7608 7.192 17.7181 7.48C17.6755 7.75733 17.5101 8.02933 17.2221 8.296C16.9341 8.57333 16.5768 8.81867 16.1501 9.032C15.7235 9.24533 15.1955 9.352 14.5661 9.352ZM12.0061 3.704C12.7421 3.72533 13.3768 3.73067 13.9101 3.72C14.4541 3.70933 14.9181 3.68267 15.3021 3.64C15.3768 3.62933 15.4301 3.592 15.4621 3.528C15.4941 3.45333 15.5048 3.368 15.4941 3.272C15.4941 3.176 15.4728 3.08 15.4301 2.984C15.3875 2.87733 15.3341 2.792 15.2701 2.728C15.1315 2.58933 14.9715 2.472 14.7901 2.376C14.6088 2.28 14.3528 2.22133 14.0221 2.2C13.7021 2.17867 13.4195 2.216 13.1741 2.312C12.9288 2.39733 12.6835 2.56267 12.4381 2.808C12.2355 3.01067 12.0915 3.30933 12.0061 3.704ZM22.1354 9.336C21.9647 9.336 21.794 9.32 21.6234 9.288C21.4527 9.256 21.2874 9.192 21.1274 9.096C20.9674 9 20.818 8.86667 20.6794 8.696C20.5514 8.52533 20.434 8.30133 20.3274 8.024C20.2527 7.84267 20.162 7.58667 20.0554 7.256C19.9594 6.91467 19.8474 6.54133 19.7194 6.136C19.602 5.72 19.4794 5.288 19.3514 4.84C19.234 4.392 19.122 3.96533 19.0154 3.56C18.9087 3.15467 18.8127 2.792 18.7274 2.472C18.642 2.14133 18.5834 1.89067 18.5514 1.72C18.498 1.41067 18.5247 1.12267 18.6314 0.856C18.738 0.578666 18.994 0.397333 19.3994 0.311999C20.1887 0.130666 20.69 0.525333 20.9034 1.496C20.9567 1.752 21.0314 2.09333 21.1274 2.52C21.2234 2.936 21.3247 3.368 21.4314 3.816C21.5487 4.264 21.6607 4.70133 21.7674 5.128C21.874 5.55467 21.9594 5.90667 22.0234 6.184C22.0447 6.28 22.0714 6.33867 22.1034 6.36C22.1354 6.38133 22.178 6.33333 22.2314 6.216C22.658 5.128 23.0047 4.17333 23.2714 3.352C23.5487 2.53067 23.81 1.77333 24.0554 1.08C24.1194 0.898666 24.242 0.738666 24.4234 0.599999C24.6154 0.450666 24.818 0.375999 25.0314 0.375999C25.2447 0.375999 25.4314 0.423999 25.5914 0.52C25.762 0.616 25.9167 0.866666 26.0554 1.272C26.1407 1.51733 26.2474 1.85333 26.3754 2.28C26.5034 2.696 26.6367 3.144 26.7754 3.624C26.9247 4.09333 27.0687 4.55733 27.2074 5.016C27.3567 5.47467 27.49 5.864 27.6074 6.184C27.65 6.29067 27.6927 6.36533 27.7354 6.408C27.7887 6.44 27.842 6.37067 27.8954 6.2C28.2047 5.18667 28.4554 4.28 28.6474 3.48C28.85 2.68 29.0047 2.04533 29.1114 1.576C29.2287 1.05333 29.4047 0.706666 29.6394 0.535999C29.8847 0.354666 30.162 0.290667 30.4714 0.344C30.8127 0.408 31.042 0.568 31.1594 0.823999C31.2767 1.06933 31.2767 1.43733 31.1594 1.928C31.106 2.152 31.0367 2.424 30.9514 2.744C30.8767 3.064 30.7807 3.416 30.6634 3.8C30.5567 4.17333 30.4447 4.56267 30.3274 4.968C30.21 5.36267 30.0874 5.752 29.9594 6.136C29.842 6.50933 29.7247 6.86667 29.6074 7.208C29.5007 7.53867 29.4047 7.82133 29.3194 8.056C29.1807 8.408 28.9834 8.70133 28.7274 8.936C28.4714 9.16 28.194 9.272 27.8954 9.272C27.586 9.272 27.2927 9.20267 27.0154 9.064C26.7487 8.936 26.5194 8.68533 26.3274 8.312C26.082 7.85333 25.858 7.34667 25.6554 6.792C25.4527 6.23733 25.2607 5.64533 25.0794 5.016C25.0474 4.89867 25.01 4.84533 24.9674 4.856C24.9354 4.86667 24.9087 4.91467 24.8874 5C24.6847 5.672 24.4874 6.28 24.2954 6.824C24.1034 7.368 23.8847 7.90133 23.6394 8.424C23.3407 9.032 22.8394 9.336 22.1354 9.336Z" fill="#E0E0E0"/>
</svg>
