<svg width="100" height="100" viewBox="0 0 100 100" fill="none" xmlns="http://www.w3.org/2000/svg">
<circle cx="50" cy="50" r="45" fill="#FFE922"/>
<circle cx="50" cy="50" r="33" fill="#FFC222"/>
<path d="M63.992 66.608C63.448 67.152 62.744 67.408 61.88 67.376C61.016 67.376 60.232 67.104 59.528 66.56C59.272 66.336 58.904 65.968 58.424 65.456C57.944 64.944 57.384 64.336 56.744 63.632C54.792 64.656 52.6 65.168 50.168 65.168C48.44 65.168 46.664 64.816 44.84 64.112C43.048 63.376 41.416 62.32 39.944 60.944C38.504 59.536 37.32 57.824 36.392 55.808C35.464 53.792 35 51.488 35 48.896C35 46.944 35.272 44.976 35.816 42.992C36.392 40.976 37.288 39.152 38.504 37.52C39.752 35.888 41.352 34.56 43.304 33.536C45.288 32.512 47.688 32 50.504 32C52.456 32 54.296 32.336 56.024 33.008C57.752 33.648 59.256 34.672 60.536 36.08C61.848 37.456 62.888 39.216 63.656 41.36C64.424 43.472 64.808 45.984 64.808 48.896C64.808 50.912 64.52 52.832 63.944 54.656C63.4 56.448 62.6 58.064 61.544 59.504C62.696 60.72 63.608 61.728 64.28 62.528C64.728 63.072 64.952 63.728 64.952 64.496C64.952 65.296 64.632 66 63.992 66.608ZM42.248 48.848C42.248 50.48 42.488 51.904 42.968 53.12C43.448 54.304 44.072 55.296 44.84 56.096C45.608 56.864 46.472 57.44 47.432 57.824C48.392 58.176 49.352 58.352 50.312 58.352C50.6 58.352 50.888 58.336 51.176 58.304C51.464 58.272 51.736 58.224 51.992 58.16C51.704 57.776 51.432 57.424 51.176 57.104C50.92 56.752 50.696 56.432 50.504 56.144C49.832 55.152 49.512 54.256 49.544 53.456C49.608 52.656 49.96 52.048 50.6 51.632C51.368 51.088 52.104 50.96 52.808 51.248C53.544 51.504 54.312 52.048 55.112 52.88C55.272 53.04 55.48 53.248 55.736 53.504C55.992 53.76 56.264 54.048 56.552 54.368C57.48 52.704 57.944 50.72 57.944 48.416C57.944 46.976 57.768 45.632 57.416 44.384C57.096 43.136 56.6 42.048 55.928 41.12C55.288 40.192 54.472 39.456 53.48 38.912C52.52 38.368 51.384 38.096 50.072 38.096C48.76 38.096 47.608 38.384 46.616 38.96C45.656 39.536 44.856 40.32 44.216 41.312C43.576 42.272 43.08 43.408 42.728 44.72C42.408 46.032 42.248 47.408 42.248 48.848Z" fill="#FFE922"/>
</svg>
