<svg width="20" height="20" viewBox="0 0 20 20" fill="none" xmlns="http://www.w3.org/2000/svg">
<g id="Group 12287">
<rect id="Rectangle 58443" x="1.17676" width="2.35294" height="4.31373" rx="0.784314" fill="#C3C3C3"/>
<rect id="Rectangle 58444" x="16.4707" width="2.35294" height="4.31373" rx="0.784314" fill="#C3C3C3"/>
<path id="Rectangle 58441" d="M0 4.31375C0 3.44742 0.702299 2.74512 1.56863 2.74512H18.4314C19.2977 2.74512 20 3.44742 20 4.31374V18.4314C20 19.2977 19.2977 20 18.4314 20H1.56863C0.7023 20 0 19.2977 0 18.4314V4.31375Z" fill="#FFE922"/>
<g id="Group 12261">
<circle id="Ellipse 677" cx="10.1965" cy="11.3722" r="7.80388" fill="#FFE922"/>
<circle id="Ellipse 678" cx="10.1965" cy="11.3723" r="5.72285" fill="#FFC222"/>
<path id="Q" d="M12.6235 14.2517C12.5291 14.346 12.4071 14.3904 12.2572 14.3849C12.1074 14.3849 11.9714 14.3377 11.8493 14.2434C11.8049 14.2045 11.7411 14.1407 11.6579 14.0519C11.5746 13.9631 11.4775 13.8577 11.3665 13.7356C11.028 13.9132 10.6479 14.002 10.2261 14.002C9.92646 14.002 9.61847 13.9409 9.30215 13.8189C8.99138 13.6912 8.70836 13.5081 8.45309 13.2695C8.20337 13.0253 7.99804 12.7284 7.8371 12.3788C7.67617 12.0292 7.5957 11.6296 7.5957 11.1801C7.5957 10.8416 7.64287 10.5003 7.73721 10.1562C7.8371 9.80661 7.99249 9.4903 8.20337 9.20728C8.41979 8.92426 8.69726 8.69395 9.03578 8.51637C9.37984 8.33879 9.79605 8.25 10.2844 8.25C10.6229 8.25 10.942 8.30827 11.2417 8.42481C11.5413 8.5358 11.8022 8.71338 12.0241 8.95755C12.2517 9.19618 12.432 9.5014 12.5652 9.87321C12.6984 10.2395 12.765 10.6751 12.765 11.1801C12.765 11.5297 12.7151 11.8627 12.6152 12.179C12.5208 12.4898 12.3821 12.77 12.199 13.0197C12.3987 13.2306 12.5569 13.4054 12.6734 13.5442C12.7511 13.6385 12.79 13.7523 12.79 13.8854C12.79 14.0242 12.7345 14.1463 12.6235 14.2517ZM8.85265 11.1718C8.85265 11.4548 8.89427 11.7017 8.97751 11.9126C9.06075 12.118 9.16897 12.29 9.30215 12.4287C9.43534 12.5619 9.58517 12.6618 9.75166 12.7284C9.91814 12.7894 10.0846 12.82 10.2511 12.82C10.301 12.82 10.351 12.8172 10.4009 12.8116C10.4509 12.8061 10.4981 12.7978 10.5424 12.7867C10.4925 12.7201 10.4453 12.659 10.4009 12.6035C10.3565 12.5425 10.3177 12.487 10.2844 12.437C10.1679 12.265 10.1124 12.1096 10.1179 11.9709C10.129 11.8322 10.1901 11.7267 10.301 11.6546C10.4342 11.5602 10.5619 11.538 10.684 11.588C10.8116 11.6324 10.9448 11.7267 11.0835 11.871C11.1113 11.8987 11.1473 11.9348 11.1917 11.9792C11.2361 12.0236 11.2833 12.0736 11.3332 12.1291C11.4942 11.8405 11.5746 11.4964 11.5746 11.0969C11.5746 10.8471 11.5441 10.6141 11.4831 10.3976C11.4276 10.1812 11.3416 9.99252 11.225 9.83159C11.114 9.67065 10.9725 9.54302 10.8005 9.44868C10.634 9.35434 10.437 9.30717 10.2095 9.30717C9.98196 9.30717 9.78218 9.35711 9.61015 9.457C9.44366 9.55689 9.30493 9.69285 9.19394 9.86488C9.08295 10.0314 8.99693 10.2284 8.93589 10.4559C8.8804 10.6834 8.85265 10.922 8.85265 11.1718Z" fill="#FFE922"/>
</g>
</g>
</svg>
