<svg width="29" height="12" viewBox="0 0 29 12" fill="none" xmlns="http://www.w3.org/2000/svg">
<path fill-rule="evenodd" clip-rule="evenodd" d="M2.03772 5.07239C0.919636 5.14176 0.020278 6.07158 0.020278 7.22244C0.020278 9.83945 2.14158 11.9611 4.75859 11.9615L10.5569 11.9624C12.0199 11.9626 13.2387 10.8413 13.3602 9.38347L14.0413 1.20965C14.0638 0.94034 13.8544 0.707884 13.5842 0.702085L4.17942 0.500222C3.59826 0.487749 3.14595 1.00171 3.23217 1.57657L3.73404 4.92235C4.07069 4.95784 4.4298 4.99988 4.7964 5.04784C6.05085 5.21198 7.41025 5.44767 8.26792 5.73356C8.3416 5.75812 8.38142 5.83776 8.35686 5.91144C8.3323 5.98512 8.25266 6.02494 8.17898 6.00038C7.34915 5.72377 6.01326 5.49071 4.75991 5.32672C3.62148 5.17776 2.56551 5.08758 2.03772 5.07239Z" fill="#E0E0E0"/>
<path fill-rule="evenodd" clip-rule="evenodd" d="M26.558 5.07239C27.6761 5.14176 28.5754 6.07158 28.5754 7.22244C28.5754 9.83945 26.4541 11.9611 23.8371 11.9615L18.0388 11.9624C16.5758 11.9626 15.357 10.8413 15.2355 9.38347L14.5544 1.20965C14.5319 0.94034 14.7413 0.707884 15.0115 0.702085L24.4163 0.500222C24.9974 0.487749 25.4498 1.00171 25.3635 1.57657L24.8617 4.92235C24.525 4.95784 24.1659 4.99988 23.7993 5.04784C22.5449 5.21198 21.1854 5.44767 20.3278 5.73356C20.2541 5.75812 20.2143 5.83776 20.2388 5.91144C20.2634 5.98512 20.343 6.02494 20.4167 6.00038C21.2465 5.72377 22.5824 5.49071 23.8358 5.32672C24.9742 5.17776 26.0302 5.08759 26.558 5.07239Z" fill="#E0E0E0"/>
</svg>
