<svg width="24" height="19" viewBox="0 0 24 19" fill="none" xmlns="http://www.w3.org/2000/svg">
<path d="M0.766277 4.24561C0.466535 1.99755 2.21542 0 4.48338 0H6.1377H7.26017C7.63216 0 7.97898 0.187862 8.1822 0.499429C10.0161 3.31103 14.1343 3.31103 15.9682 0.499429C16.1714 0.187862 16.5182 0 16.8902 0H18.0127H19.667C21.935 0 23.6839 1.99755 23.3841 4.24561L22.7993 8.63158C22.7335 9.12501 22.7335 9.62499 22.7993 10.1184L23.7615 17.3348C23.8614 18.0842 23.2785 18.75 22.5225 18.75H1.62792C0.871938 18.75 0.288975 18.0842 0.388889 17.3348L1.35107 10.1184C1.41686 9.62499 1.41686 9.12501 1.35107 8.63158L0.766277 4.24561Z" fill="#E0E0E0"/>
</svg>
